<svg width="32" height="32" viewBox="0 0 32 32" fill="none" xmlns="http://www.w3.org/2000/svg">
<rect width="32" height="32" rx="4" fill="white"/>
<path d="M8.48043 27.6061C7.31191 27.6061 6.23452 27.306 5.24825 26.7056C4.27271 26.1053 3.48476 25.3066 2.88443 24.3096C2.29481 23.3019 2 22.1977 2 20.9971L2.03216 10.5608C2.03216 9.33872 2.32697 8.23988 2.91659 7.26434C3.49548 6.27807 4.27807 5.49012 5.26433 4.90051C6.2506 4.30017 7.32263 4 8.48043 4C9.6811 4 10.7585 4.29481 11.7126 4.88443C12.6774 5.47404 13.4493 6.26735 14.0282 7.26434C14.6178 8.2506 14.9126 9.34944 14.9126 10.5608L14.9448 20.9971C14.9448 22.1977 14.6553 23.2966 14.0764 24.2936C13.4868 25.3013 12.7042 26.1053 11.7287 26.7056C10.7531 27.306 9.67038 27.6061 8.48043 27.6061ZM8.48043 23.6343C9.14509 23.6343 9.72398 23.3662 10.2171 22.8302C10.7103 22.2835 10.9568 21.6724 10.9568 20.9971L10.9247 10.5608C10.9247 9.83185 10.6942 9.21543 10.2332 8.71158C9.77223 8.20772 9.18797 7.9558 8.48043 7.9558C7.80505 7.9558 7.22615 8.20236 6.74374 8.6955C6.26132 9.18863 6.02012 9.81041 6.02012 10.5608V20.9971C6.02012 21.7153 6.26132 22.3371 6.74374 22.8624C7.22615 23.377 7.80505 23.6343 8.48043 23.6343Z" fill="black"/>
<path d="M23.5317 27.6061C22.3632 27.6061 21.2858 27.306 20.2996 26.7056C19.324 26.1053 18.5361 25.3066 17.9357 24.3096C17.3461 23.3019 17.0513 22.1977 17.0513 20.9971L17.0835 10.5608C17.0835 9.33872 17.3783 8.23988 17.9679 7.26434C18.5468 6.27807 19.3294 5.49012 20.3157 4.90051C21.3019 4.30017 22.374 4 23.5317 4C24.7324 4 25.8098 4.29481 26.7639 4.88443C27.7287 5.47404 28.5006 6.26735 29.0795 7.26434C29.6691 8.2506 29.9639 9.34944 29.9639 10.5608L29.9961 20.9971C29.9961 22.1977 29.7066 23.2966 29.1277 24.2936C28.5381 25.3013 27.7555 26.1053 26.78 26.7056C25.8045 27.306 24.7217 27.6061 23.5317 27.6061ZM23.5317 23.6343C24.1964 23.6343 24.7753 23.3662 25.2684 22.8302C25.7616 22.2835 26.0081 21.6724 26.0081 20.9971L25.976 10.5608C25.976 9.83185 25.7455 9.21543 25.2845 8.71158C24.8235 8.20772 24.2393 7.9558 23.5317 7.9558C22.8564 7.9558 22.2775 8.20236 21.7951 8.6955C21.3126 9.18863 21.0714 9.81041 21.0714 10.5608V20.9971C21.0714 21.7153 21.3126 22.3371 21.7951 22.8624C22.2775 23.377 22.8564 23.6343 23.5317 23.6343Z" fill="black"/>
<ellipse cx="10.6448" cy="15.1148" rx="2.0583" ry="3.70494" fill="black"/>
<ellipse cx="25.4647" cy="15.1148" rx="2.0583" ry="3.70494" fill="black"/>
</svg>
