<svg width="145" height="37" viewBox="0 0 145 37" fill="none" xmlns="http://www.w3.org/2000/svg">
<path d="M2.08 1.6H6.3V24.24H16.44V28H2.08V1.6ZM23.365 14.78C23.365 16.5933 23.745 18.24 24.505 19.72C25.265 21.1867 26.3117 22.3533 27.645 23.22C28.9783 24.0733 30.5117 24.5 32.245 24.5C34.005 24.5 35.545 24.0733 36.865 23.22C38.1983 22.3533 39.2383 21.1867 39.985 19.72C40.745 18.24 41.125 16.5933 41.125 14.78C41.125 12.9667 40.745 11.3267 39.985 9.86C39.2383 8.39333 38.1983 7.23333 36.865 6.38C35.545 5.52666 34.005 5.1 32.245 5.1C30.5117 5.1 28.9783 5.52666 27.645 6.38C26.3117 7.23333 25.265 8.39333 24.505 9.86C23.745 11.3267 23.365 12.9667 23.365 14.78ZM18.985 14.78C18.985 12.86 19.3183 11.0733 19.985 9.42C20.665 7.75333 21.5983 6.3 22.785 5.06C23.985 3.82 25.3917 2.85333 27.005 2.16C28.6183 1.46666 30.365 1.12 32.245 1.12C34.1517 1.12 35.905 1.46666 37.505 2.16C39.1183 2.85333 40.525 3.82 41.725 5.06C42.925 6.3 43.8517 7.75333 44.505 9.42C45.1583 11.0733 45.485 12.86 45.485 14.78C45.485 16.7133 45.1583 18.5133 44.505 20.18C43.865 21.8333 42.9517 23.2867 41.765 24.54C40.5783 25.78 39.1783 26.7467 37.565 27.44C35.9517 28.1333 34.1783 28.48 32.245 28.48C30.2983 28.48 28.5117 28.1333 26.885 27.44C25.2717 26.7467 23.8717 25.78 22.685 24.54C21.5117 23.2867 20.5983 21.8333 19.945 20.18C19.305 18.5133 18.985 16.7133 18.985 14.78ZM52.5056 14.78C52.5056 16.5933 52.8856 18.24 53.6456 19.72C54.4056 21.1867 55.4523 22.3533 56.7856 23.22C58.119 24.0733 59.6523 24.5 61.3856 24.5C63.1456 24.5 64.6856 24.0733 66.0056 23.22C67.339 22.3533 68.379 21.1867 69.1256 19.72C69.8856 18.24 70.2656 16.5933 70.2656 14.78C70.2656 12.9667 69.8856 11.3267 69.1256 9.86C68.379 8.39333 67.339 7.23333 66.0056 6.38C64.6856 5.52666 63.1456 5.1 61.3856 5.1C59.6523 5.1 58.119 5.52666 56.7856 6.38C55.4523 7.23333 54.4056 8.39333 53.6456 9.86C52.8856 11.3267 52.5056 12.9667 52.5056 14.78ZM48.1256 14.78C48.1256 12.86 48.459 11.0733 49.1256 9.42C49.8056 7.75333 50.739 6.3 51.9256 5.06C53.1256 3.82 54.5323 2.85333 56.1456 2.16C57.759 1.46666 59.5056 1.12 61.3856 1.12C63.2923 1.12 65.0456 1.46666 66.6456 2.16C68.259 2.85333 69.6656 3.82 70.8656 5.06C72.0656 6.3 72.9923 7.75333 73.6456 9.42C74.299 11.0733 74.6256 12.86 74.6256 14.78C74.6256 16.7133 74.299 18.5133 73.6456 20.18C73.0056 21.8333 72.0923 23.2867 70.9056 24.54C69.719 25.78 68.319 26.7467 66.7056 27.44C65.0923 28.1333 63.319 28.48 61.3856 28.48C59.439 28.48 57.6523 28.1333 56.0256 27.44C54.4123 26.7467 53.0123 25.78 51.8256 24.54C50.6523 23.2867 49.739 21.8333 49.0856 20.18C48.4456 18.5133 48.1256 16.7133 48.1256 14.78ZM86.3263 14.56L96.8663 28H91.8263L82.5263 16V28H78.3063V1.6H82.5263V13.3L91.1863 1.6H95.9863L86.3263 14.56ZM115.699 1.6H119.899V17.94C119.899 20.1133 119.466 21.9933 118.599 23.58C117.746 25.1533 116.552 26.3667 115.019 27.22C113.486 28.06 111.699 28.48 109.659 28.48C107.632 28.48 105.846 28.06 104.299 27.22C102.752 26.3667 101.546 25.1533 100.679 23.58C99.8124 21.9933 99.3791 20.1133 99.3791 17.94V1.6H103.579V17.72C103.579 19.16 103.839 20.3933 104.359 21.42C104.892 22.4467 105.612 23.2333 106.519 23.78C107.439 24.3267 108.486 24.6 109.659 24.6C110.832 24.6 111.872 24.3267 112.779 23.78C113.686 23.2333 114.399 22.4467 114.919 21.42C115.439 20.3933 115.699 19.16 115.699 17.72V1.6ZM133.317 1.12C134.864 1.12 136.204 1.3 137.337 1.66C138.484 2.00667 139.391 2.38 140.057 2.78C140.724 3.16666 141.124 3.42 141.257 3.54L139.157 6.96C138.957 6.78667 138.597 6.54667 138.077 6.24C137.571 5.92 136.944 5.63333 136.197 5.38C135.464 5.12667 134.644 5 133.737 5C132.377 5 131.297 5.26667 130.497 5.8C129.697 6.32 129.297 7.08 129.297 8.08C129.297 8.74667 129.511 9.33333 129.937 9.84C130.364 10.3467 130.971 10.82 131.757 11.26C132.557 11.7 133.511 12.1467 134.617 12.6C135.551 12.9867 136.457 13.4267 137.337 13.92C138.231 14.4133 139.031 14.9933 139.737 15.66C140.444 16.3267 141.004 17.1 141.417 17.98C141.844 18.86 142.057 19.8733 142.057 21.02C142.057 22.22 141.811 23.2867 141.317 24.22C140.824 25.14 140.144 25.92 139.277 26.56C138.411 27.1867 137.411 27.6667 136.277 28C135.157 28.32 133.957 28.48 132.677 28.48C130.997 28.48 129.484 28.28 128.137 27.88C126.804 27.4667 125.724 27.04 124.897 26.6C124.071 26.1467 123.591 25.8533 123.457 25.72L125.677 22.14C125.837 22.2733 126.131 22.4733 126.557 22.74C126.997 22.9933 127.537 23.2667 128.177 23.56C128.817 23.84 129.524 24.08 130.297 24.28C131.084 24.4667 131.897 24.56 132.737 24.56C134.351 24.56 135.571 24.2133 136.397 23.52C137.224 22.8133 137.637 21.9067 137.637 20.8C137.637 19.96 137.371 19.2333 136.837 18.62C136.317 17.9933 135.597 17.4267 134.677 16.92C133.771 16.4133 132.737 15.9133 131.577 15.42C130.391 14.9 129.291 14.3133 128.277 13.66C127.277 13.0067 126.471 12.2133 125.857 11.28C125.244 10.3333 124.937 9.18667 124.937 7.84C124.937 6.49333 125.317 5.32 126.077 4.32C126.851 3.30667 127.871 2.52 129.137 1.96C130.404 1.4 131.797 1.12 133.317 1.12Z" fill="black"/>
<path fill-rule="evenodd" clip-rule="evenodd" d="M56.073 29.288C57.2444 29.6761 58.4807 29.9143 59.7607 29.9808C58.2949 31.8207 56.0352 33 53.5 33C50.6419 33 48.1339 31.5013 46.719 29.2469C45.3041 31.5013 42.7961 33 39.9381 33C37.3902 33 35.1204 31.8089 33.6554 29.9531C34.8902 29.8524 36.0816 29.5916 37.2101 29.1909C37.9946 29.7026 38.9316 30 39.9381 30C42.3571 30 44.3748 28.2822 44.8381 26H45.5619H47.8762H48.6C49.0633 28.2822 51.081 30 53.5 30C54.441 30 55.3213 29.74 56.073 29.288Z" fill="black"/>
</svg>
